<svg height="491pt" viewBox="-67 0 491 491.88178" width="491pt" xmlns="http://www.w3.org/2000/svg"><path d="m266.589844 314.601562c42.980468.023438 79.277344 31.90625 84.84375 74.519532 5.570312 42.617187-21.320313 82.757812-62.851563 93.820312-41.527343 11.0625-84.824219-10.378906-101.195312-50.117187-16.371094-39.734375-.746094-85.453125 36.523437-106.855469 12.988282-7.453125 27.703125-11.375 42.679688-11.367188zm42.429687 78.738282h17.570313l-18.769532-13.667969-41.230468-30.011719-60 43.679688h17.582031v57.53125h84.847656zm0 0" fill="#6fe3ff"/><path d="m326.589844 393.339844h-17.570313v57.53125h-84.847656v-57.53125h-17.582031l60-43.679688 41.230468 30.011719zm0 0" fill="#f8ec7d"/><path d="m227.832031 189.300781h-.601562v-51.589843h20.859375c9.871094.003906 17.871094 8.007812 17.871094 17.878906v15.839844c0 9.871093-8 17.871093-17.871094 17.871093zm0 0" fill="#6fe3ff"/><path d="m201.152344 247.300781h16.4375c11.910156 0 21.5625-9.652343 21.5625-21.5625v-15.808593l23.738281 74.832031s-13.410156 3.296875-34.820313 4.679687l-6.199218-15.679687-11 16s-19.75-.011719-33-1.5h-2.019532v-23.960938c2.230469-1.140625 4.40625-2.359375 6.53125-3.660156l-.070312-.320313c5.082031-1.222656 8.660156-5.773437 8.660156-11v-2.019531zm0 0" fill="#4b5d63"/><path d="m37.039062 111.769531c0-.390625-.007812-.78125-.007812-1.167969-.011719-11.171874 1.769531-22.273437 5.28125-32.882812l.5.160156s90.828125 13.402344 147.929688-59.339844l.128906-.238281c34.101562 18.175781 55.398437 53.675781 55.378906 92.320313v27.089844h-19.019531v30.660156s-54.320313-4.132813-63.539063-50.390625l-.011718-.011719c-36.4375 27.140625-89.949219 25.5625-125.808594 20.792969l-2.480469-.183594c.667969-.136719 1.339844-.238281 2.019531-.296875l-.089844-1.28125zm0 0" fill="#4b5d63"/><path d="m239.152344 209.929688v15.808593c0 11.910157-9.652344 21.5625-21.5625 21.5625h-16.4375v-1.851562c15.269531-16.007813 25.796875-32.871094 26.679687-56.148438h11.320313zm0 0" fill="#4b5d63"/><path d="m39.839844 180.851562c-6.351563-1.269531-11.910156-5.078124-15.390625-10.542968s-4.578125-12.113282-3.039063-18.410156c1.632813-6.804688 7.105469-12.019532 13.980469-13.320313l2.480469.183594c35.859375 4.769531 89.371094 6.347656 125.808594-20.792969l.011718.011719c9.21875 46.257812 63.539063 50.390625 63.539063 50.390625v20.929687h.601562c-.882812 23.277344-11.410156 40.140625-26.679687 56.148438v1.851562h-10.179688v-2.019531c-.003906-6.246094-5.066406-11.308594-11.3125-11.3125h-40.269531c-6.246094.003906-11.308594 5.066406-11.308594 11.3125v4.039062c-.003906 6.246094 5.0625 11.3125 11.308594 11.308594h40.269531c.894532 0 1.78125-.105468 2.652344-.308594l.070312.320313c-2.121093 1.300781-4.296874 2.519531-6.53125 3.660156-28.921874 14.664063-63.386718 13.257813-91.015624-3.714843-27.632813-16.96875-44.472657-47.070313-44.476563-79.496094v-.140625c-.167969-.027344-.347656-.058594-.519531-.097657zm0 0" fill="#f7caa5"/><path d="m202.371094 316.78125 21.539062 9.1875c-20.707031 11.90625-35.507812 31.917969-40.828125 55.203125-5.320312 23.289063-.683593 47.738281 12.800781 67.457031h-38.523437v-105.988281l-.597656-2.550781c16.730469-3.773438 32.257812-11.652344 45.179687-22.929688zm0 0" fill="#cc7350"/><path d="m202.371094 316.78125-.429688.378906c-39.179687 34.128906-97.582031 33.964844-136.570312-.378906l26.328125-11.242188c26.574219 13.179688 57.777343 13.183594 84.351562.011719zm0 0" fill="#f8ec7d"/><path d="m190.972656 247.300781v2.019531c0 5.226563-3.578125 9.777344-8.660156 11-.871094.203126-1.757812.308594-2.652344.308594h-40.269531c-6.246094.003906-11.3125-5.0625-11.308594-11.308594v-4.039062c0-6.246094 5.0625-11.308594 11.308594-11.3125h40.269531c6.246094.003906 11.308594 5.066406 11.3125 11.3125zm0 0" fill="#6fe3ff"/><path d="m190.871094 18.300781-.128906.238281c-57.101563 72.742188-147.929688 59.339844-147.929688 59.339844l-.5-.160156c9.710938-29.269531 31.839844-52.769531 60.472656-64.222656 28.636719-11.453125 60.867188-9.695313 88.085938 4.804687zm0 0" fill="#4b5d63"/><path d="m175.851562 305.460938.199219.089843c-26.574219 13.171875-57.777343 13.167969-84.351562-.011719l.191406-.078124v-40.941407c26.441406 13.238281 57.589844 13.15625 83.960937-.21875zm0 0" fill="#edb288"/><path d="m104.289062 448.628906h-97.847656v-78c1.441406-17.300781 11.800782-32.597656 27.328125-40.359375l31.601563-13.488281c24.953125 21.992188 58.949218 30.664062 91.390625 23.308594l.597656 2.550781v105.988281zm0 0" fill="#e48e66"/><path d="m91.890625 264.519531v23.742188c-48.570313 5.46875-85.019531-3.5-85.019531-3.5l32.96875-103.910157c.171875.039063.351562.070313.519531.097657v.140625c.011719 35.320312 19.953125 67.609375 51.53125 83.429687zm0 0" fill="#4b5d63"/><g fill="#63316d"><path d="m6.441406 454.628906h186.351563c29 39.328125 83.753906 48.984375 124.457031 21.949219 40.703125-27.039063 53.035156-81.253906 28.03125-123.234375-25.007812-41.980469-78.554688-56.957031-121.710938-34.042969l-41.71875-17.796875v-6.832031c12.851563 1.0625 28.285157 1.085937 29.015626 1.085937 1.976562 0 3.824218-.972656 4.945312-2.597656l4.617188-6.71875 2.058593 5.199219c.953125 2.425781 3.367188 3.953125 5.964844 3.78125 21.691406-1.398437 35.300781-4.699219 35.867187-4.839844 1.613282-.398437 2.988282-1.445312 3.800782-2.890625.8125-1.449218.988281-3.167968.484375-4.75l-23.453125-73.9375v-13.703125h2.9375c13.175781-.015625 23.855468-10.691406 23.871094-23.867187v-2.292969h6.121093c3.3125 0 6-2.683594 6-6 0-3.3125-2.6875-6-6-6h-6.121093v-1.546875c-.015626-11.574219-8.316407-21.476562-19.710938-23.511719v-21.460937c.007812-61.089844-49.511719-110.61718775-110.597656-110.621094-61.089844-.00390625-110.617188 49.511719-110.621094 110.601562l.015625 1.417969v.027344l.234375 21.425781c-7.828125 2.566406-13.769531 9.003906-15.699219 17.011719-3.421875 13.953125 3.628907 28.355469 16.746094 34.210937l-31.175781 98.25c-.503906 1.582032-.328125 3.300782.484375 4.75.8125 1.449219 2.1875 2.492188 3.800781 2.890626 1.164062.285156 22.644531 5.457031 54.515625 5.457031 8.035156 0 16.742187-.339844 25.9375-1.15625v6.609375l-54.476563 23.253906c-.109374.050781-.21875.101562-.328124.152344-17.359376 8.746094-28.949219 25.863281-30.625 45.230468-.011719.164063-.019532.332032-.019532.5v78c0 3.3125 2.6875 5.996094 6 5.996094zm144.917969-75.660156h-12.949219c-3.3125 0-6 2.6875-6 6 0 3.316406 2.6875 6 6 6h12.949219v18h-12.949219c-3.3125 0-6 2.6875-6 6 0 3.316406 2.6875 6 6 6h12.949219v21.660156h-41.070313v-96.605468c13.492188 3 27.429688 3.410156 41.070313 1.210937zm75.542969-47.796875c31.261718-17.980469 70.699218-12.726563 96.167968 12.808594 25.46875 25.53125 30.617188 64.980469 12.558594 96.199219-18.054687 31.214843-54.824218 46.417968-89.652344 37.070312-34.828124-9.347656-59.042968-40.917969-59.046874-76.980469-.011719-28.53125 15.234374-54.886719 39.972656-69.097656zm-15.5625-4.042969c-35.707032 26.984375-46.714844 75.804688-26.042969 115.5h-21.9375v-98.03125c14.65625-4.101562 28.300781-11.199218 40.070313-20.84375zm-30.414063-72.648437c-.414062.097656-.839843.148437-1.265625.148437h-40.269531c-2.929687-.003906-5.304687-2.378906-5.308594-5.308594v-4.039062c.003907-2.933594 2.378907-5.308594 5.308594-5.3125h40.269531c2.933594.003906 5.308594 2.378906 5.3125 5.3125v4.039062c.007813 2.449219-1.664062 4.585938-4.046875 5.160157zm-11.074219 19.074219v28.265624c-22.933593 10.058594-49.03125 10.054688-71.960937-.015624v-28.070313c11.398437 4.417969 23.523437 6.667969 35.75 6.636719 9.265625.003906 18.488281-1.285156 27.398437-3.832032 2.976563-.851562 5.914063-1.84375 8.8125-2.984374zm85.300782 6.65625c-5.078125.910156-13.03125 2.113281-23.125 2.925781l-4.578125-11.582031c-.816407-2.0625-2.703125-3.507813-4.90625-3.757813s-4.363281.738281-5.617188 2.5625l-9.195312 13.375c-5.378907-.0625-16.648438-.292969-25.882813-1.109375v-14.734375c1.246094-.691406 2.472656-1.398437 3.667969-2.136719.167969-.101562.332031-.214844.492187-.335937 5.28125-2.0625 9.203126-6.597657 10.492188-12.117188h21.089844c10.214844-.011719 19.589844-5.664062 24.359375-14.695312zm-42.253906-38.910157c9.125-11.039062 17.742187-25.242187 20.25-43.902343v28.339843c-.007813 8.589844-6.96875 15.550781-15.558594 15.5625zm47.058593-85.710937v15.839844c-.003906 6.554687-5.316406 11.863281-11.867187 11.871093h-14.859375v-39.589843h14.859375c6.554687.007812 11.867187 5.324218 11.871094 11.878906zm-118.316406-143.578125c13.703125.003906 27.257813 2.859375 39.800781 8.378906-22.171875 25.699219-51.332031 42.210937-86.800781 49.125-14.484375 2.820313-29.261719 3.847656-44 3.050781 15.3125-36.71875 51.21875-60.613281 91-60.554687zm53.035156 37.707031c-2.605469-2.046875-6.378906-1.589844-8.425781 1.015625-22.648438 28.851563-54.363281 46.902344-94.257812 53.660156-16.140626 2.722657-32.558594 3.402344-48.871094 2.03125.308594-7.476562 1.472656-14.894531 3.46875-22.105469 3.148437.269532 7.761718.542969 13.535156.542969 12.207031-.015625 24.382812-1.179687 36.371094-3.484375 48.183594-9.269531 78.390625-34.425781 95.871094-55.320312 29.726562 17.796875 47.914062 49.914062 47.882812 84.5625v21.089844h-13.019531c-3.3125 0-6 2.683593-6 6v23.699218c-6.941407-1.34375-13.691407-3.519531-20.113281-6.480468-16.292969-7.628907-26.601563-19.257813-30.710938-34.589844 7.945312-6.421875 14.808594-14.078125 20.324219-22.675782 1.789062-2.789062.980469-6.503906-1.808594-8.292968-2.789063-1.789063-6.503906-.980469-8.292969 1.808594-5.457031 8.511718-12.414062 15.957031-20.535156 21.980468-25.898438 19.289063-66.226562 26.257813-116.8125 20.234375l-.164062-14.898437c3.945312.335937 9.390624.65625 16 .65625 11.546874-.003906 23.074218-.957032 34.464843-2.851563 42.515625-7.105469 77.824219-27.214843 102.109375-58.148437.984375-1.253906 1.429688-2.847656 1.242188-4.425782-.191406-1.582031-1.003906-3.023437-2.257813-4.007812zm-163.738281 119.3125c-2.714844-3.207031-4.203125-7.269531-4.207031-11.472656 0-1.421875.171875-2.84375.507812-4.226563 1.054688-4.441406 4.585938-7.867187 9.054688-8.789062.257812.070312.519531.125.785156.164062 13.453125 1.847657 27.011719 2.804688 40.589844 2.863281 33.535156 0 61.125-6.683593 82.441406-19.945312 5.761719 16.792969 18.152344 29.953125 36.289063 38.34375 7.910156 3.613281 16.257812 6.183594 24.832031 7.644531v15.6875c0 .78125.152343 1.558594.453125 2.28125-1.269532 17.847657-8.800782 32.867188-24.867188 49.71875h-.324218c-1.851563-7.804687-8.8125-13.316406-16.832032-13.332031h-40.269531c-9.554687.011719-17.300781 7.753906-17.308594 17.3125v4.039062c.007813 9.554688 7.753907 17.300782 17.308594 17.308594h11.613281c-5.714844 1.15625-11.53125 1.738282-17.363281 1.742188-48.203125.003906-87.28125-39.078125-87.28125-87.28125v-.140625c-.027344-2.925781-2.140625-5.414063-5.023437-5.917969l-.117188-.019531c-.070312-.019531-.144531-.035157-.214844-.046875-3.925781-.792969-7.472656-2.882813-10.066406-5.933594zm39.511719 114.800781 3.257812-13.679687c.519531-2.09375-.125-4.304688-1.6875-5.789063-1.5625-1.488281-3.804687-2.023437-5.867187-1.398437-2.066406.621094-3.636719 2.304687-4.117188 4.40625l-3.960937 16.636718c-14.566407-.070312-29.105469-1.339843-43.460938-3.800781l23.191407-73.097656c7.089843 26.027344 24.445312 48.054687 48.085937 61.042969v14.699218c-5.320313.480469-10.480469.796876-15.441406.976563zm21.117187 28.300781c26.863282 12.308594 57.753906 12.308594 84.621094.007813l14.582031 6.21875c-34.007812 24.398437-79.78125 24.398437-113.785156-.003906zm-79.125 58.753907c1.386719-15.039063 10.394532-28.320313 23.855469-35.171875l28.039063-11.96875c10.101562 8.273437 21.601562 14.675781 33.953124 18.898437v99.984375h-85.847656zm0 0"/><path d="m85.371094 195.511719c3.3125 0 6-2.6875 6-6v-14.992188c0-3.3125-2.6875-6-6-6s-6 2.6875-6 6v14.992188c0 3.3125 2.6875 6 6 6zm0 0"/><path d="m181.742188 195.511719c3.3125 0 6-2.6875 6-6v-14.992188c0-3.3125-2.6875-6-6-6-3.316407 0-6 2.6875-6 6v14.992188c0 3.3125 2.683593 6 6 6zm0 0"/><path d="m200.886719 395.195312c.800781 2.46875 3.101562 4.140626 5.699219 4.144532h11.578124v51.53125c0 3.3125 2.6875 6 6 6h84.851563c3.3125 0 6-2.6875 6-6v-51.53125h11.570313c2.597656 0 4.902343-1.671875 5.703124-4.144532.804688-2.46875-.070312-5.175781-2.171874-6.707031l-60-43.679687c-2.105469-1.53125-4.957032-1.53125-7.0625 0l-60 43.679687c-2.097657 1.53125-2.972657 4.238281-2.167969 6.707031zm65.699219-38.113281 41.640624 30.308594c-2.984374.398437-5.210937 2.941406-5.210937 5.949219v51.53125h-72.84375v-51.53125c0-3.011719-2.230469-5.554688-5.214844-5.949219zm0 0"/></g></svg>