<svg height="483pt" viewBox="-47 0 483 483" width="483pt" xmlns="http://www.w3.org/2000/svg"><path d="m343.160156 266.019531h-.46875v-39.890625h16.117188c7.636718 0 13.828125 6.195313 13.820312 13.832032v12.238281c.003906 7.632812-6.1875 13.824219-13.820312 13.820312zm0 0" fill="#6fe3ff"/><path d="m322.53125 310.859375h12.707031c9.203125-.003906 16.660157-7.464844 16.660157-16.667969v-12.230468l18.363281 57.859374c-8.863281 1.921876-17.867188 3.128907-26.921875 3.609376l-4.789063-12.121094-8.511719 12.371094s-16.6875-.007813-27.078124-1.019532v-18.679687c1.730468-.871094 3.414062-1.808594 5.050781-2.820313l-.171875-.46875c4.0625-1.300781 6.816406-5.078125 6.820312-9.339844v-.492187zm0 0" fill="#4b5d63"/><path d="m369.03125 406.199219v70.800781h-80.359375v-92.441406l-.472656-1.96875c12.9375-2.917969 24.945312-9.011719 34.941406-17.730469l.328125-.289063 24.429688 10.429688c12.003906 6 20.011718 17.824219 21.132812 31.199219zm0 0" fill="#cc7350"/><path d="m195.660156 206.078125c0-.308594-.011718-.609375-.011718-.917969-.007813-8.632812 1.371093-17.214844 4.082031-25.410156h.007812l.382813.128906s70.21875 10.359375 114.359375-45.867187l.097656-.191407c26.363281 14.050782 42.824219 41.496094 42.8125 71.371094v20.9375h-14.699219v23.710938s-41.992187-3.199219-49.132812-38.960938c-28.167969 20.972656-69.539063 19.75-97.257813 16.070313l-2.441406-.039063c.6875-.15625 1.378906-.273437 2.082031-.339844l-.070312-.980468zm0 0" fill="#4b5d63"/><path d="m351.898438 281.960938v12.230468c0 9.203125-7.457032 16.664063-16.660157 16.667969h-12.707031v-1.4375c11.789062-12.382813 19.949219-25.402344 20.628906-43.402344h8.738282zm0 0" fill="#4b5d63"/><path d="m238.058594 324.171875c-24.410156-12.234375-39.828125-37.195313-39.839844-64.5v-.113281c-.128906-.019532-.257812-.046875-.390625-.078125-8.585937-1.707031-14.773437-9.242188-14.777344-18-.003906-1.476563.175781-2.949219.527344-4.378907 1.214844-5.074218 5.199219-9.023437 10.28125-10.191406l2.441406.039063c27.71875 3.679687 69.089844 4.902343 97.257813-16.070313 7.140625 35.761719 49.132812 38.960938 49.132812 38.960938v16.179687h.46875c-.679687 18-8.839844 31.019531-20.628906 43.402344v1.4375h-7.871094v-.488281c-.003906-5.421875-4.398437-9.820313-9.820312-9.820313h-28.988282c-5.421874.003907-9.8125 4.398438-9.8125 9.820313v.980468c0 5.417969 4.390626 9.808594 9.8125 9.808594h28.988282c1.019531.003906 2.03125-.15625 3-.46875l.171875.46875c-1.640625 1.011719-3.324219 1.949219-5.050781 2.820313-20.382813 10.332031-44.457032 10.402343-64.902344.191406zm0 0" fill="#f7caa5"/><path d="m323.46875 364.570312-.328125.289063c-30.289063 26.386719-75.4375 26.261719-105.582031-.289063l.210937-.089843 20.140625-8.601563c20.542969 10.191406 44.664063 10.195313 65.210938.011719zm0 0" fill="#6fe3ff"/><path d="m314.660156 310.859375v.492187c-.003906 4.261719-2.757812 8.039063-6.820312 9.339844-.96875.3125-1.980469.472656-3 .46875h-28.988282c-5.421874 0-9.8125-4.390625-9.8125-9.808594v-.980468c0-5.421875 4.390626-9.816406 9.8125-9.820313h28.988282c5.421875 0 9.816406 4.398438 9.820312 9.820313zm0 0" fill="#6fe3ff"/><path d="m314.578125 133.820312-.097656.191407c-44.140625 56.226562-114.359375 45.867187-114.359375 45.867187l-.382813-.128906c7.511719-22.625 24.617188-40.789062 46.75-49.644531 22.136719-8.851563 47.050781-7.492188 68.089844 3.714843zm0 0" fill="#4b5d63"/><path d="m302.960938 342.660156v13.160156l.160156.070313c-20.546875 10.183594-44.667969 10.179687-65.210938-.011719l.148438-.058594v-31.648437c20.433594 10.257813 44.527344 10.1875 64.902344-.191406zm0 0" fill="#edb288"/><path d="m247.640625 477h-75.640625v-70.800781c1.109375-13.375 9.121094-25.203125 21.128906-31.199219l24.429688-10.429688c19.289062 17 45.566406 23.703126 70.640625 18.019532l.472656 1.96875v92.441406zm0 0" fill="#e48e66"/><path d="m139.398438 132.71875-1.296876-.949219-44.660156-32.507812-46.160156 33.597656.199219.28125v76.78125h91.917969zm-133.398438-66.71875v-20c0-22.089844 17.910156-40 40-40h160c22.089844 0 40 17.910156 40 40v84.28125c-21.898438 8.949219-38.796875 27.019531-46.261719 49.46875h-.007812c-2.710938 8.195312-4.089844 16.777344-4.082031 25.410156 0 .308594.011718.609375.011718.917969l.210938 19.511719.070312.980468c-.703125.066407-1.394531.183594-2.082031.339844-5.082031 1.167969-9.066406 5.117188-10.28125 10.191406-.351563 1.429688-.53125 2.902344-.527344 4.378907.003907 8.757812 6.191407 16.292969 14.777344 18l-25.488281 80.339843s28.171875 6.929688 65.71875 2.699219v13.300781l-.148438.058594-20.140625 8.601563-.210937-.480469h-211.558594zm0 0" fill="#f8ec7d"/><path d="m238.058594 324.171875v18.347656c-37.546875 4.230469-65.71875-2.699219-65.71875-2.699219l25.488281-80.339843c.132813.03125.261719.058593.390625.078125v.113281c.011719 27.304687 15.429688 52.265625 39.839844 64.5zm0 0" fill="#4b5d63"/><path d="m217.558594 364 .210937.480469-.210937.089843-24.429688 10.429688c-12.007812 5.996094-20.019531 17.824219-21.128906 31.199219v29.800781h-126c-22.089844 0-40-17.910156-40-40v-32zm-76.558594 36c0-8.285156-6.714844-15-15-15s-15 6.714844-15 15 6.714844 15 15 15c8.28125-.003906 14.996094-6.71875 15-15zm0 0" fill="#6fe3ff"/><path d="m139.398438 132.71875v77.203125h-91.917969v-76.78125l-.199219-.28125 46.160156-33.597656 44.660156 32.507812zm0 0" fill="#6fe3ff"/><path d="m141 400c0 8.285156-6.714844 15-15 15s-15-6.714844-15-15 6.714844-15 15-15 15 6.714844 15 15zm0 0" fill="#f8ec7d"/><g fill="#63316d"><path d="m382 239.789062h-3.378906c-.089844-9.105468-6.371094-16.984374-15.230469-19.097656v-15.5c-.015625-27.375-12.925781-53.144531-34.84375-69.546875-21.917969-16.398437-50.28125-21.515625-76.546875-13.804687v-75.839844c-.027344-25.394531-20.605469-45.9726562-46-46h-160c-25.394531.0273438-45.9726562 20.605469-46 46v350c.0273438 25.394531 20.605469 45.972656 46 46h120v35c0 3.3125 2.6875 6 6 6h197.03125c3.3125 0 6-2.6875 6-6v-70.800781c0-.167969-.007812-.332031-.023438-.5-1.34375-15.441407-10.582031-29.085938-24.425781-36.066407-.105469-.054687-.214843-.105468-.324219-.152343l-41.300781-17.625v-2.738281c9.699219.546874 20.515625.5625 21.074219.5625 1.976562 0 3.824219-.972657 4.945312-2.601563l2.125-3.089844.652344 1.648438c.949219 2.425781 3.363282 3.953125 5.960938 3.78125 9.410156-.5 18.765625-1.761719 27.96875-3.773438 1.613281-.394531 2.988281-1.441406 3.800781-2.890625.8125-1.445312.988281-3.164062.488281-4.746094l-18.074218-56.976562v-9.011719h.910156c10.941406-.011719 19.808594-8.878906 19.820312-19.820312v-.410157h3.371094c3.3125 0 6-2.683593 6-6 0-3.3125-2.6875-6-6-6zm-30.609375-34.597656v14.9375h-8.699219c-3.316406 0-6 2.6875-6 6v16.652344c-4.714844-1.03125-9.304687-2.574219-13.683594-4.601562-11.867187-5.578126-19.476562-13.980469-22.695312-24.992188 5.957031-4.9375 11.117188-10.761719 15.300781-17.269531 1.792969-2.785157.988281-6.5-1.800781-8.292969-2.785156-1.792969-6.5-.984375-8.292969 1.800781-4.132812 6.441407-9.402343 12.078125-15.542969 16.644531-19.527343 14.535157-49.925781 19.871094-88.113281 15.519532l-.117187-8.835938c2.914062.210938 6.625.390625 10.984375.390625 9 0 17.988281-.742187 26.863281-2.21875 33.207031-5.554687 60.800781-21.277343 79.785156-45.46875 1.339844-1.6875 1.679688-3.960937.878906-5.960937-.796874-2.003906-2.605468-3.421875-4.738281-3.722656-2.132812-.296876-4.265625.570312-5.582031 2.273437-17.273438 22.011719-41.476562 35.800781-71.9375 40.976563-11.957031 2.019531-24.113281 2.582031-36.207031 1.683593.28125-4.863281 1.042969-9.6875 2.265625-14.398437 2.390625.175781 5.589844.332031 9.449218.332031 9.519532-.007813 19.019532-.917969 28.371094-2.714844 29.90625-5.753906 55.433594-20.355469 74.148438-42.339843 22.003906 13.648437 35.382812 37.710937 35.363281 63.605468zm-130.511719 116.421875c-3.222656-.765625-6.460937 1.226563-7.226562 4.449219l-2.804688 11.800781c-10.304687-.109375-20.582031-.988281-30.753906-2.640625l16.121094-50.800781c6.164062 18.390625 18.9375 33.839844 35.84375 43.347656v9.324219c-3.015625.257812-5.960938.453125-8.832032.578125l2.101563-8.824219c.371094-1.550781.109375-3.183594-.726563-4.539062-.832031-1.359375-2.171874-2.328125-3.722656-2.695313zm23.179688 11.640625c8.433594 3.015625 17.324218 4.546875 26.28125 4.527344 7.292968.003906 14.554687-1.011719 21.566406-3.015625 1.710938-.496094 3.390625-1.066406 5.054688-1.671875v19.023438c-16.910157 7.152343-35.996094 7.144531-52.902344-.011719zm64.601562-21.902344c-.011718 1.652344-1.074218 3.113282-2.644531 3.625l-.035156.011719c-.367188.121094-.753907.179688-1.140625.175781h-28.988282c-2.105468-.003906-3.808593-1.707031-3.8125-3.8125v-.980468c0-2.105469 1.703126-3.8125 3.8125-3.816406h28.988282c2.109375 0 3.816406 1.710937 3.820312 3.816406zm-3.820312-16.796874h-28.988282c-8.730468.011718-15.804687 7.085937-15.8125 15.816406v.980468c.011719 6.214844 3.660157 11.847657 9.324219 14.402344-9.941406-.109375-19.726562-2.484375-28.613281-6.945312-22.382812-11.214844-36.519531-34.101563-36.53125-59.136719v-.113281c0-2.925782-2.113281-5.425782-5-5.914063l-.074219-.015625c-.050781-.011718-.097656-.023437-.152343-.035156-5.78125-1.152344-9.941407-6.222656-9.945313-12.113281-.003906-.996094.117187-1.984375.355469-2.949219.652344-2.808594 2.816406-5.015625 5.609375-5.722656.164062.035156.328125.066406.492187.089844 10.449219 1.429687 20.980469 2.171874 31.523438 2.21875 25.457031 0 46.558594-4.929688 63.050781-14.730469 8.648437 22.460937 31.371094 32.035156 46.605469 34.71875v10.914062c.003906.671875.117187 1.339844.339844 1.976563-.988282 12.867187-6.394532 23.84375-17.699219 36.046875-2.515625-5.757813-8.199219-9.484375-14.484375-9.492188zm41.058594-10.472657v10.109375c-.003907 5.886719-4.769532 10.660156-10.660157 10.667969h-.8125c4.964844-6.230469 8.847657-13.257813 11.472657-20.78125zm-40.890626-148.136719c-16.757812 18.796876-38.570312 30.949219-64.980468 36.113282-10.472656 2.042968-21.148438 2.863281-31.8125 2.453125 16.574218-36.867188 59.40625-53.933594 96.792968-38.566407zm-259.007812-123.945312h160c18.769531.019531 33.980469 15.230469 34 34v14h-14c-3.3125 0-6 2.6875-6 6s2.6875 6 6 6h14v54.355469c-21.675781 10.019531-38.261719 28.535156-45.84375 51.175781-.042969.109375-.085938.21875-.121094.328125-2.914062 8.808594-4.394531 18.027344-4.386718 27.300781l.179687 16.742188c-6.023437 2.335937-10.53125 7.46875-12.070313 13.742187-1.871093 7.59375.015626 15.625 5.078126 21.585938 2.089843 2.457031 4.652343 4.476562 7.527343 5.9375l-23.742187 74.839843c-.5 1.582032-.324219 3.300782.488281 4.75.808594 1.445313 2.1875 2.492188 3.796875 2.890626.910156.222656 17.648438 4.25 42.464844 4.25 5.816406 0 12.082031-.222657 18.6875-.765626v2.722657l-14.5 6.191406v-.046875h-205.558594v-286h163c3.3125 0 6-2.6875 6-6s-2.6875-6-6-6h-163v-14c.019531-18.769531 15.230469-33.980469 34-34zm0 418c-18.769531-.019531-33.980469-15.230469-34-34v-26h177.769531c-13.480469 7.078125-22.433593 20.53125-23.75 35.699219-.011719.164062-.019531.332031-.019531.5v23.800781zm132-23.539062c1.042969-11.125 7.707031-20.941407 17.65625-26.015626l20.867188-8.910156c7.527343 6.039063 16.019531 10.769532 25.117187 13.992188v85.472656h-63.640625zm104.671875 4.828124h-8.652344c-3.3125 0-6 2.6875-6 6 0 3.316407 2.6875 6 6 6h8.652344v11.191407h-8.652344c-3.3125 0-6 2.6875-6 6s2.6875 6 6 6h8.652344v24.519531h-29.03125v-82.160156c9.554687 1.9375 19.375 2.226562 29.03125.855468zm80.359375-4.828124v64.539062h-68.359375v-83.890625c10.863281-3.1875 21-8.480469 29.828125-15.574219l20.875 8.910156c9.945312 5.082032 16.605469 14.894532 17.65625 26.015626zm-51.34375-40.394532c-24.917969 16.667969-57.429688 16.667969-82.34375-.003906l8.445312-3.605469c20.8125 9.351563 44.632813 9.351563 65.449219.003907zm35.609375-28.949218-3.167969-8.015626c-.8125-2.0625-2.699218-3.507812-4.902344-3.757812-2.203124-.25-4.363281.734375-5.621093 2.5625l-6.707031 9.746094c-4.082032-.042969-11.449219-.171875-17.9375-.554688v-9.542968c.734374-.421876 1.472656-.84375 2.199218-1.289063.46875-.289063.894532-.644531 1.269532-1.050781 3.34375-1.816406 5.917968-4.789063 7.242187-8.359375h15.566406c7.316407-.003907 14.179688-3.542969 18.425781-9.5l8.84375 27.863281c-3.695312.628906-8.882812 1.363281-15.207031 1.898438zm19.332031-84.917969c-.003906 4.316406-3.503906 7.816406-7.820312 7.820312h-10.117188v-27.890625h10.117188c4.320312.007813 7.820312 3.511719 7.820312 7.832032zm0 0"/><path d="m233.019531 248.589844c-3.3125 0-6 2.6875-6 6v11.589844c0 3.3125 2.6875 6 6 6s6-2.6875 6-6v-11.589844c0-3.3125-2.6875-6-6-6zm0 0"/><path d="m307.519531 248.589844c-3.3125 0-6 2.6875-6 6v11.589844c0 3.3125 2.6875 6 6 6s6-2.6875 6-6v-11.589844c0-3.3125-2.6875-6-6-6zm0 0"/><path d="m194.691406 72h11.117188c3.316406 0 6-2.6875 6-6s-2.683594-6-6-6h-11.117188c-3.316406 0-6 2.6875-6 6s2.683594 6 6 6zm0 0"/><path d="m126 379c-11.597656 0-21 9.402344-21 21s9.402344 21 21 21 21-9.402344 21-21c-.011719-11.59375-9.40625-20.988281-21-21zm0 30c-4.96875 0-9-4.03125-9-9s4.03125-9 9-9 9 4.03125 9 9c-.003906 4.96875-4.03125 8.996094-9 9zm0 0"/><path d="m76.148438 256c0-3.3125-2.683594-6-6-6h-31.226563c-3.316406 0-6 2.6875-6 6s2.683594 6 6 6h31.226563c3.316406 0 6-2.6875 6-6zm0 0"/><path d="m118 256c0-3.3125-2.6875-6-6-6h-18.558594c-3.316406 0-6 2.6875-6 6s2.683594 6 6 6h18.558594c3.3125 0 6-2.6875 6-6zm0 0"/><path d="m131.699219 256c0 3.3125 2.6875 6 6 6h27.378906c3.316406 0 6-2.6875 6-6s-2.683594-6-6-6h-27.378906c-3.3125 0-6 2.6875-6 6zm0 0"/><path d="m50.148438 284h-11.226563c-3.316406 0-6 2.6875-6 6s2.683594 6 6 6h11.226563c3.316406 0 6-2.6875 6-6s-2.683594-6-6-6zm0 0"/><path d="m73.441406 296h28.558594c3.3125 0 6-2.6875 6-6s-2.6875-6-6-6h-28.558594c-3.316406 0-6 2.6875-6 6s2.683594 6 6 6zm0 0"/><path d="m167.699219 284h-42.621094c-3.3125 0-6 2.6875-6 6s2.6875 6 6 6h42.621094c3.316406 0 6-2.6875 6-6s-2.683594-6-6-6zm0 0"/><path d="m50.148438 314h-11.226563c-3.316406 0-6 2.6875-6 6s2.683594 6 6 6h11.226563c3.316406 0 6-2.6875 6-6s-2.683594-6-6-6zm0 0"/><path d="m132 314h-58.558594c-3.316406 0-6 2.6875-6 6s2.683594 6 6 6h58.558594c3.3125 0 6-2.6875 6-6s-2.6875-6-6-6zm0 0"/><path d="m157.699219 314h-2.621094c-3.3125 0-6 2.6875-6 6s2.6875 6 6 6h2.621094c3.316406 0 6-2.6875 6-6s-2.683594-6-6-6zm0 0"/><path d="m41.480469 209.921875c0 3.3125 2.6875 6 6 6h91.917969c3.316406 0 6-2.6875 6-6v-65.414063l9.511718 6.921876c1.730469 1.304687 4.027344 1.574218 6.015625.707031 1.984375-.871094 3.347657-2.742188 3.5625-4.898438.21875-2.15625-.746093-4.261719-2.515625-5.507812l-16.574218-12.066407v-19.382812c0-3.316406-2.683594-6-6-6-3.3125 0-6 2.683594-6 6v10.648438l-36.425782-26.519532c-2.105468-1.53125-4.957031-1.53125-7.0625 0l-65 47.320313c-2.648437 1.960937-3.21875 5.6875-1.277344 8.351562 1.9375 2.664063 5.660157 3.265625 8.339844 1.347657l9.507813-6.921876zm51.960937-103.242187 39.957032 29.09375v68.148437h-79.917969v-68.148437zm0 0"/></g></svg>